# AST/ASF file generated using VICON BodyLanguage
# -----------------------------------------------
:version 1.10
:name VICON
:units
  mass 1.0
  length 0.45
  angle deg
:documentation
   .ast/.asf automatically generated from VICON data using
   VICON BodyBuilder and BodyLanguage model FoxedUp or BRILLIANT.MOD
:root
   order TX TY TZ RX RY RZ
   axis XYZ
   position 0 0 0  
   orientation 0 0 0 
:bonedata
  begin
     id 1 
     name lhipjoint
     direction 0.716712 -0.619771 0.3197 
     length 2.67249 
     axis 0 0 0  XYZ
  end
  begin
     id 2 
     name lfemur
     direction 0.34202 -0.939693 0  
     length 7.04375  
     axis 0 0 20  XYZ
    dof rx ry rz
    limits (-160.0 20.0)
           (-70.0 70.0)
           (-60.0 70.0)
  end
  begin
     id 3 
     name ltibia
     direction 0.34202 -0.939693 0   
     length 8.12233   
     axis 0 0 20   XYZ
    dof rx
    limits (-10.0 170.0)
  end
  begin
     id 4 
     name lfoot
     direction 0.0986665 -0.271084 0.957485   
     length 1.97802   
     axis -90 7.62852e-016 20   XYZ
    dof rx rz
    limits (-45.0 90.0)
           (-70.0 20.0)
  end
  begin
     id 5 
     name ltoes
     direction 1.53569e-011 -4.21962e-011 1   
     length 0.991074   
     axis -90 7.62852e-016 20   XYZ
    dof rx
    limits (-90.0 20.0)
  end
  begin
     id 6 
     name rhipjoint
     direction -0.684484 -0.647907 0.334213   
     length 2.55643  
     axis 0 0 0  XYZ 
  end
  begin
     id 7 
     name rfemur
     direction -0.34202 -0.939693 0   
     length 7.00452   
     axis 0 0 -20   XYZ
    dof rx ry rz
    limits (-160.0 20.0)
           (-70.0 70.0)
           (-70.0 60.0)
  end
  begin
     id 8 
     name rtibia
     direction -0.34202 -0.939693 0   
     length 7.98545   
     axis 0 0 -20   XYZ
    dof rx
    limits (-10.0 170.0)
 end
 begin
     id 9 
     name rfoot
     direction -0.0877828 -0.241181 0.966502   
     length 2.17223  
     axis -90 -7.62852e-016 -20   XYZ
    dof rx rz
    limits (-45.0 90.0)
           (-20.0 70.0)
  end
  begin
     id 10 
     name rtoes
     direction -1.53586e-011 -4.22014e-011 1   
     length 1.0886   
     axis -90 -7.62852e-016 -20   XYZ
    dof rx
    limits (-90.0 20.0)
  end
  begin
     id 11 
     name lowerback
     direction -0.0470064 0.989573 -0.136149   
     length 2.05976   
     axis 0 0 0   XYZ
    dof rx ry rz
    limits (-20.0 45.0)
           (-30.0 30.0)
           (-30.0 30.0)
  end
  begin
     id 12 
     name upperback
     direction -0.00532895 0.998093 0.0615045   
     length 2.02286   
     axis 0 0 0   XYZ
    dof rx ry rz
    limits (-20.0 45.0)
           (-30.0 30.0)
           (-30.0 30.0)
  end
  begin
     id 13 
     name thorax
     direction 0.0171558 0.991502 0.128954   
     length 2.09196   
     axis 0 0 0   XYZ
    dof rx ry rz
    limits (-20.0 45.0)
           (-30.0 30.0)
           (-30.0 30.0)
  end
  begin
     id 14 
     name lowerneck
     direction 0.0221176 0.995362 0.0936194   
     length 1.70234   
     axis 0 0 0   XYZ
    dof rx ry rz
    limits (-20.0 45.0)
           (-30.0 30.0)
           (-30.0 30.0)
  end
  begin
     id 15 
     name upperneck
     direction -0.0237973 0.998511 -0.0490877   
     length 1.66068   
     axis 0 0 0   XYZ
    dof rx ry rz
    limits (-20.0 45.0)
           (-30.0 30.0)
           (-30.0 30.0)
  end
  begin
     id 16
     name head
     direction -0.00980141 0.999531 -0.0289958  
     length 1.82618  
     axis 0 0 0   XYZ
    dof rx ry rz
    limits (-20.0 45.0)
           (-30.0 30.0)
           (-30.0 30.0)
  end
  begin
     id 17 
     name lclavicle
     direction 0.894784 0.445864 -0.0238113  
     length 3.37997  
     axis 0 0 0   XYZ
    dof ry rz
    limits (-20.0 10.0)
           (0.0 20.0)
  end
  begin
     id 18 
     name lhumerus
     direction 1 -4.48975e-011 6.49229e-028   
     length 5.79016   
     axis 180 -30 -90   XYZ
    dof rx ry rz
    limits (-60.0 90.0)
           (-90.0 90.0)
           (-90.0 90.0)
  end
  begin
     id 19
     name lradius
     direction 1 -4.48959e-011 2.80427e-027   
     length 3.48314   
     axis 180 -30 -90   XYZ
    dof rx
    limits (-10.0 170.0)
  end
  begin
     id 20
     name lwrist
     direction 1 -4.48938e-011 5.60449e-029   
     length 1.74157   
     axis 8.48505e-016 90 90   XYZ
    dof ry
    limits (-180.0 0.0)
 end
  begin
     id 21 
     name lhand
     direction 1 -4.49048e-011 1.1209e-028   
     length 0.587065   
     axis -7.15228e-017 90 90   XYZ
    dof rx rz
    limits (-90.0 90.0)
           (-45.0 45.0)
  end
  begin
     id 22 
     name lfingers
     direction 1 -4.49036e-011 2.24179e-028   
     length 0.473307   
     axis -1.43046e-016 90 90   XYZ
    dof rx
    limits (0.0 90.0)
  end
  begin
     id 23
     name lthumb
     direction 0.707107 -6.34878e-011 0.707107   
     length 0.679577   
     axis -90 45 2.85299e-015   XYZ
    dof rx rz
    limits (-45.0 45.0)
           (-45.0 45.0)
  end
  begin
     id 24 
     name rclavicle
     direction -0.952963 0.303049 0.00480459   
     length 3.50503  
     axis 0 0 0   XYZ 
    dof ry rz
    limits (-10.0 20.0)
           (-20.0 0.0)
  end
  begin
     id 25 
     name rhumerus
     direction -1 -4.48973e-011 -1.5431e-027  
     length 5.69822   
     axis 180 30 90   XYZ
    dof rx ry rz
    limits (-90.0 60.0)
           (-90.0 90.0)
           (-90.0 90.0)
  end
  begin
     id 26 
     name rradius
     direction -1 -4.4896e-011 2.11972e-027   
     length 3.58077   
     axis 180 30 90   XYZ
    dof rx
    limits (-10.0 170.0)
  end
  begin
     id 27 
     name rwrist
     direction -1 -4.48943e-011 5.60449e-029   
     length 1.79039   
     axis 8.48505e-016 -90 -90   XYZ
    dof ry
    limits (-180.0 0.0)
  end
  begin
     id 28
     name rhand
     direction -1 -4.49007e-011 1.1209e-028   
     length 0.620156   
     axis -7.15228e-017 -90 -90   XYZ
    dof rx rz
    limits (-90.0 90.0)
           (-45.0 45.0)
  end
  begin
     id 29
     name rfingers
     direction -1 -4.49025e-011 2.24179e-028   
     length 0.499985   
     axis -1.43046e-016 -90 -90   XYZ
    dof rx
    limits (0.0 90.0)
  end
  begin
     id 30
     name rthumb
     direction -0.707107 -6.3481e-011 0.707107   
     length 0.717882   
     axis -90 -45 -2.85299e-015   XYZ
    dof rx rz
    limits (-45.0 45.0)
           (-45.0 45.0)
  end
:hierarchy
  begin
    root lhipjoint rhipjoint lowerback
    lhipjoint lfemur
    lfemur ltibia
    ltibia lfoot
    lfoot ltoes
    rhipjoint rfemur
    rfemur rtibia
    rtibia rfoot
    rfoot rtoes
    lowerback upperback
    upperback thorax
    thorax lowerneck lclavicle rclavicle
    lowerneck upperneck
    upperneck head
    lclavicle lhumerus
    lhumerus lradius
    lradius lwrist
    lwrist lhand lthumb
    lhand lfingers
    rclavicle rhumerus
    rhumerus rradius
    rradius rwrist
    rwrist rhand rthumb
    rhand rfingers
  end

#!OML:ASF H:\Terrain\Patient Classification 1\PaulMetrics\March17Take4\PaulMetrics.ASF
:FULLY-SPECIFIED
:DEGREES
454
root 16.1677 17.7263 11.7791 -168.4 -3.7068 -184.572
lowerback 0.5725 -0.274391 -8.53892
upperback -2.62009 -0.673635 -0.473014
thorax -2.96604 -0.181815 4.31885
lowerneck -3.32003 9.9078 7.24642
upperneck 11.0271 13.6326 -10.0185
head 5.04502 6.3462 -3.42399
rclavicle 3.75827e-015 8.94531e-016
rhumerus -48.9299 15.7324 -89.2271
rradius 40.3302
rwrist -6.41121
rhand -8.95659 -34.0193
rfingers 7.12502
rthumb 16.9882 -63.2964
lclavicle 3.75827e-015 8.94531e-016
lhumerus -37.5135 -23.2549 84.5817
lradius 72.0468
lwrist 26.0273
lhand -14.8046 -21.8961
lfingers 7.12502
lthumb 11.3532 7.77655
rfemur -42.8966 18.9634 -1.37551
rtibia 21.0954
rfoot -18.9962 -24.9799
rtoes -6.21977
lfemur 5.80989 -7.53455 -30.745
ltibia 7.27722
lfoot -16.0764 2.13083
ltoes 1.85525
455
root 16.1938 17.7016 11.6209 -168.356 -3.74024 -184.889
lowerback 0.615653 -0.267088 -8.81542
upperback -2.72467 -0.692861 -0.547991
thorax -3.09874 -0.181296 4.39715
lowerneck -3.18573 9.91701 7.2739
upperneck 10.9628 13.6417 -9.99515
head 5.00368 6.35924 -3.4281
rclavicle 2.1506e-014 2.41523e-014
rhumerus -49.1462 15.6708 -89.1046
rradius 40.0076
rwrist -6.0602
rhand -8.86553 -33.5594
rfingers 7.12502
rthumb 17.0759 -62.8289
lclavicle 2.1506e-014 2.41523e-014
lhumerus -38.0985 -23.0481 84.7719
lradius 72.0836
lwrist 26.2627
lhand -15.2264 -21.8569
lfingers 7.12502
lthumb 10.9464 7.83776
rfemur -42.782 17.4614 -0.720002
rtibia 20.9407
rfoot -18.2256 -23.9856
rtoes -7.25782
lfemur 7.12233 -7.50381 -30.9528
ltibia 6.007
lfoot -15.6791 1.82644
ltoes 1.79414
456
root 16.2252 17.6718 11.4644 -168.286 -3.88169 -184.993
lowerback 0.688648 -0.0599928 -8.70629
upperback -2.91067 -0.460609 -0.835078
thorax -3.37093 -0.0642479 4.03061
lowerneck -2.82199 9.63712 7.98766
upperneck 10.8912 13.2403 -10.0852
head 4.93809 6.20498 -3.61642
rclavicle 2.65253e-015 -4.06515e-014
rhumerus -49.4968 14.5505 -89.0423
rradius 39.6485
rwrist -5.9803
rhand -10.2522 -32.6795
rfingers 7.12502
rthumb 15.7408 -62.0594
lclavicle 2.65253e-015 -4.06515e-014
lhumerus -38.6205 -23.6085 84.8267
lradius 72.0089
lwrist 26.2528
lhand -15.0447 -21.2204
lfingers 7.12502
lthumb 11.1216 8.46484
rfemur -42.54 15.7232 0.410101
rtibia 20.8367
rfoot -16.8637 -22.7496
rtoes -9.16359
lfemur 7.84961 -7.54608 -30.8953
ltibia 5.49048
lfoot -15.4819 1.57829
ltoes 0.980612
457
root 16.2624 17.6585 11.3118 -168.224 -4.16885 -184.935
lowerback 0.759845 0.0986476 -8.55219
upperback -3.00937 -0.273151 -1.00115
thorax -3.54019 0.0277003 3.76525
lowerneck -2.89249 9.32603 8.65075
upperneck 10.9524 12.8121 -10.3537
head 4.98897 6.00842 -3.83172
rclavicle -6.26172e-015 2.60408e-014
rhumerus -50.3242 15.1181 -90.8529
rradius 43.0653
rwrist -9.03576
rhand -12.0871 -69.8841
rfingers 7.12502
rthumb 13.973 99.3945
lclavicle -6.26172e-015 2.60408e-014
lhumerus -38.7586 -24.0154 84.8092
lradius 71.6039
lwrist 25.9921
lhand -14.6681 -20.9752
lfingers 7.12502
lthumb 11.4849 8.69024
rfemur -42.4577 14.4202 1.50022
rtibia 21.2818
rfoot -16.1392 -21.9977
rtoes -9.92554
lfemur 9.09802 -7.70853 -30.5748
ltibia 3.96222
lfoot -14.5399 1.32699
ltoes 1.00175
458
root 16.3047 17.6374 11.1542 -168.254 -4.3532 -185.169
lowerback 0.777798 0.074546 -8.91336
upperback -2.99798 -0.3213 -1.02398
thorax -3.53521 0.0111816 3.94496
lowerneck -2.90835 9.30975 8.76717
upperneck 10.9126 12.7945 -10.4698
head 4.99288 5.99961 -3.88644
rclavicle 3.2054e-015 -2.78299e-015
rhumerus -50.0496 14.3563 -90.0747
rradius 41.6423
rwrist -7.73005
rhand -6.44258 -57.0616
rfingers 7.12502
rthumb 19.4069 273.887
lclavicle 3.2054e-015 -2.78299e-015
lhumerus -38.9533 -23.739 84.8549
lradius 71.1348
lwrist 25.7441
lhand -14.8586 -21.2266
lfingers 7.12502
lthumb 11.3011 8.44891
rfemur -42.2472 13.0753 2.40829
rtibia 21.8612
rfoot -15.4663 -21.1629
rtoes -9.46268
lfemur 10.0672 -7.81067 -30.5775
ltibia 3.24295
lfoot -13.9903 1.0393
ltoes 0.865324
459
root 16.3452 17.6125 10.9922 -168.371 -4.53117 -185.347
lowerback 0.902968 -0.0303747 -9.16187
upperback -3.08413 -0.492201 -1.00442
thorax -3.67542 -0.0601125 4.1115
lowerneck -2.48321 9.3869 8.50345
upperneck 10.7148 12.8917 -10.1997
head 4.83535 6.06734 -3.778
rclavicle 5.98839e-015 -2.00773e-014
rhumerus -49.742 13.2487 -88.7158
rradius 38.6302
rwrist -6.09434
rhand -10.2238 -32.6378
rfingers 7.12502
rthumb 15.7681 297.985
lclavicle 5.98839e-015 -2.00773e-014
lhumerus -39.6386 -23.2968 85.0365
lradius 70.8456
lwrist 25.7232
lhand -15.5892 -20.9401
lfingers 7.12502
lthumb 10.5965 8.77275
rfemur -41.9268 11.6937 3.47864
rtibia 22.611
rfoot -14.6057 -20.1339
rtoes -9.6392
lfemur 10.6724 -7.87761 -30.5596
ltibia 3.3804
lfoot -13.7571 0.631561
ltoes 1.29482
460
root 16.3789 17.5873 10.8284 -168.528 -4.63217 -185.154
lowerback 0.987382 -0.125701 -8.95516
upperback -3.07516 -0.609988 -0.901653
thorax -3.69532 -0.118691 4.10858
lowerneck -2.42174 9.43272 8.17635
upperneck 10.5213 12.9472 -10.0163
head 4.73765 6.09868 -3.67327
rclavicle 1.15668e-014 -4.27387e-015
rhumerus -49.6277 13.1617 -88.4516
rradius 38.2203
rwrist -5.29544
rhand -30.2803 -23.9958
rfingers 7.12502
rthumb -3.58817 306.055
lclavicle 1.15668e-014 -4.27387e-015
lhumerus -40.1319 -22.7195 85.1383
lradius 70.4895
lwrist 25.9783
lhand -15.856 -20.4468
lfingers 7.12502
lthumb 10.3391 9.27905
rfemur -41.745 10.6974 4.76434
rtibia 23.67
rfoot -14.1629 -19.1981
rtoes -9.92288
lfemur 11.6244 -7.79701 -30.2215
ltibia 2.9793
lfoot -13.1405 0.37306
ltoes 1.35916
461
root 16.4098 17.5511 10.6621 -168.556 -4.56169 -184.983
lowerback 0.835631 -0.184849 -8.8001
upperback -2.98729 -0.649105 -0.787782
thorax -3.50918 -0.147004 4.14047
lowerneck -2.72763 9.55289 8.05739
upperneck 10.5456 13.1213 -10.1458
head 4.8138 6.16261 -3.66483
rclavicle -2.26118e-015 4.87022e-015
rhumerus -49.5503 13.5368 -88.5413
rradius 38.0752
rwrist -6.03126
rhand -14.9715 -30.2957
rfingers 7.12502
rthumb 11.1922 300.023
lclavicle -2.26118e-015 4.87022e-015
lhumerus -40.3039 -21.9567 85.1262
lradius 69.8166
lwrist 25.7885
lhand -15.7997 -20.717
lfingers 7.12502
lthumb 10.3933 9.00611
rfemur -41.8074 9.74469 5.95797
rtibia 24.8484
rfoot -13.9122 -18.2586
rtoes -9.52658
lfemur 12.4836 -7.57595 -29.9593
ltibia 2.53436
lfoot -12.4768 0.255881
ltoes 0.584336
462
root 16.4471 17.5124 10.4921 -168.534 -4.57114 -185.114
lowerback 0.767119 -0.134307 -8.9653
upperback -2.9839 -0.583922 -0.829531
thorax -3.47678 -0.113825 4.18631
lowerneck -3.09419 9.5662 8.19308
upperneck 10.884 13.1357 -10.1485
head 4.98982 6.15482 -3.66207
rclavicle -7.82715e-015 -6.75868e-015
rhumerus -49.6966 13.4501 -88.5991
rradius 38.0898
rwrist -6.74392
rhand -15.6012 -24.9913
rfingers 7.12502
rthumb 10.5849 305.295
lclavicle -7.82715e-015 -6.75868e-015
lhumerus -40.5043 -21.7291 85.1453
lradius 69.015
lwrist 25.109
lhand -16.2968 -21.4635
lfingers 7.12502
lthumb 9.91386 8.28308
rfemur -41.8377 8.74632 6.81971
rtibia 26.0149
rfoot -13.0344 -17.49
rtoes -9.97798
lfemur 13.2601 -7.49954 -29.9517
ltibia 2.16113
lfoot -11.9569 0.166006
ltoes 1.20115
463
root 16.4887 17.4913 10.3194 -168.639 -4.86666 -185.304
lowerback 0.865959 -0.157436 -9.18203
upperback -2.95624 -0.631744 -0.857046
thorax -3.49795 -0.132358 4.28115
lowerneck -3.2233 9.46971 8.11519
upperneck 10.9486 12.996 -10.0244
head 5.00451 6.08575 -3.6171
rclavicle 1.4151e-014 1.80894e-014
rhumerus -49.6482 12.9727 -88.322
rradius 37.7901
rwrist -6.68062
rhand -13.5272 -30.3985
rfingers 7.12502
rthumb 12.5849 300.001
lclavicle 1.4151e-014 1.80894e-014
lhumerus -40.7233 -21.5999 85.2685
lradius 68.2683
lwrist 24.7909
lhand -16.6685 -21.588
lfingers 7.12502
lthumb 9.55522 8.17534
rfemur -41.6217 7.90376 7.50634
rtibia 27.1067
rfoot -11.2747 -17.0885
rtoes -11.7868
lfemur 14.2432 -7.69751 -29.9218
ltibia 1.65878
lfoot -11.4433 0.0946936
ltoes 2.85596
464
root 16.5242 17.4955 10.1445 -168.656 -5.22468 -185.392
lowerback 0.802477 -0.257684 -9.14347
upperback -2.98423 -0.761641 -0.868431
thorax -3.47312 -0.199476 4.25181
lowerneck -2.93361 9.416 7.936
upperneck 10.7112 12.9272 -9.9893
head 4.86224 6.0606 -3.60261
rclavicle 1.61202e-014 6.65929e-015
rhumerus -49.5386 12.3995 -87.9815
rradius 37.3222
rwrist -6.31169
rhand -10.8557 -33.7988
rfingers 7.12502
rthumb 15.1595 296.776
lclavicle 1.61202e-014 6.65929e-015
lhumerus -41.1075 -21.3828 85.4708
lradius 67.6013
lwrist 24.9617
lhand -16.2239 -21.0712
lfingers 7.12502
lthumb 9.9841 8.67197
rfemur -41.5605 7.23392 8.02528
rtibia 28.0442
rfoot -9.32295 -16.7622
rtoes -12.3034
lfemur 14.7194 -7.94208 -29.8151
ltibia 1.8531
lfoot -10.9182 0.185499
ltoes 0.957837
465
root 16.5539 17.5077 9.96188 -168.749 -5.36817 -185.178
lowerback 0.758022 -0.170589 -8.62693
upperback -3.07078 -0.641437 -0.99863
thorax -3.55645 -0.152613 3.82327
lowerneck -2.67565 9.31701 8.14904
upperneck 10.7123 12.7821 -9.9284
head 4.81547 6.00887 -3.64095
rclavicle -3.8266e-015 5.30755e-014
rhumerus -49.612 11.4339 -87.8179
rradius 36.8956
rwrist -5.83209
rhand -11.6193 -35.8215
rfingers 7.12502
rthumb 14.4239 294.7
lclavicle -3.8266e-015 5.30755e-014
lhumerus -41.7052 -21.6129 85.6176
lradius 66.9746
lwrist 25.2642
lhand -15.9385 -20.9163
lfingers 7.12502
lthumb 10.2595 8.81344
rfemur -41.5294 7.10702 8.51528
rtibia 28.8264
rfoot -8.26609 -16.4005
rtoes -9.75093
lfemur 14.7368 -7.90297 -29.4837
ltibia 2.99185
lfoot -10.6035 0.406978
ltoes -3.6208
466
root 16.5885 17.5046 9.77943 -168.878 -5.47563 -184.883
lowerback 0.806985 -0.0919377 -8.19866
upperback -3.12519 -0.5318 -1.01874
thorax -3.65422 -0.1046 3.55979
lowerneck -2.64635 9.27376 8.36922
upperneck 10.8518 12.7213 -9.97467
head 4.86476 5.98172 -3.6933
rclavicle -2.69602e-015 -5.66536e-015
rhumerus -49.71 10.803 -87.7176
rradius 36.5516
rwrist -5.57277
rhand -14.0963 -37.9314
rfingers 7.12502
rthumb 12.0362 292.435
lclavicle -2.69602e-015 -5.66536e-015
lhumerus -42.1936 -21.5297 85.7411
lradius 66.1606
lwrist 25.0985
lhand -16.4673 -21.05
lfingers 7.12502
lthumb 9.74934 8.70429
rfemur -41.4033 7.24882 8.98567
rtibia 29.5226
rfoot -7.80861 -16.0188
rtoes -7.66484
lfemur 14.2097 -7.80948 -29.0305
ltibia 5.23815
lfoot -10.8169 0.428819
ltoes -5.57928
467
root 16.6294 17.4976 9.60252 -168.929 -5.70097 -184.698
lowerback 0.720377 -0.17486 -8.14656
upperback -3.07123 -0.611925 -0.833759
thorax -3.53608 -0.144068 3.7252
lowerneck -2.75497 9.34619 8.20178
upperneck 10.9437 12.8331 -10.0408
head 4.91531 6.01746 -3.67257
rclavicle 5.07522e-015 -5.06901e-015
rhumerus -49.782 10.8017 -87.5512
rradius 36.6237
rwrist -5.70983
rhand -14.1412 -33.8641
rfingers 7.12502
rthumb 11.9929 296.499
lclavicle 5.07522e-015 -5.06901e-015
lhumerus -42.296 -20.8088 85.8717
lradius 65.0251
lwrist 24.4105
lhand -16.8242 -21.109
lfingers 7.12502
lthumb 9.40502 8.66115
rfemur -41.2472 6.94483 9.5804
rtibia 30.229
rfoot -7.24925 -15.2697
rtoes -8.07262
lfemur 13.2885 -7.86108 -28.6172
ltibia 8.04816
lfoot -11.1583 0.207621
ltoes -5.44712
468
root 16.6685 17.4957 9.42564 -169.146 -6.00703 -184.218
lowerback 0.728473 -0.298366 -7.72232
upperback -2.9418 -0.730356 -0.585536
thorax -3.38647 -0.210948 3.74958
lowerneck -2.99236 9.45344 7.89632
upperneck 11.151 12.9814 -9.91105
head 5.00431 6.06925 -3.55981
rclavicle 2.85753e-015 -7.35503e-015
rhumerus -49.7063 10.9332 -87.4708
rradius 36.656
rwrist -6.13726
rhand -14.1718 -32.2706
rfingers 7.12502
rthumb 11.9635 298.091
lclavicle 2.85753e-015 -7.35503e-015
lhumerus -42.2472 -19.9887 85.9203
lradius 63.8242
lwrist 24.1508
lhand -16.2419 -20.9618
lfingers 7.12502
lthumb 9.96682 8.7822
rfemur -40.8977 6.3647 10.6818
rtibia 31.0104
rfoot -6.41436 -14.1366
rtoes -8.56361
lfemur 12.5436 -7.92015 -27.89
ltibia 10.7905
lfoot -11.2478 -0.00470251
ltoes -6.67361
